<svg xmlns="http://www.w3.org/2000/svg" viewBox="0 0 64 64" width="64" height="64">
  <defs>
    <linearGradient id="bg" x1="0%" y1="0%" x2="100%" y2="100%">
      <stop offset="0%" style="stop-color:#111827"/>
      <stop offset="100%" style="stop-color:#1f2937"/>
    </linearGradient>
  </defs>
  <rect width="64" height="64" rx="16" fill="url(#bg)"/>
  <polygon points="32,10 37,27 54,27 40,38 45,55 32,44 19,55 24,38 10,27 27,27" fill="#3b82f6"/>
  <polygon points="32,15 35,26 46,26 37,34 40,45 32,37 24,45 27,34 18,26 29,26" fill="#60a5fa"/>
  <polygon points="32,20 33,25 39,25 34,30 35,35 32,31 29,35 30,30 25,25 31,25" fill="#ffffff" opacity="0.9"/>
</svg>